<svg width="10" height="10" viewBox="0 0 10 10" fill="none" xmlns="http://www.w3.org/2000/svg">
<path d="M3.66667 7.90321V5.53224C3.66667 5.32263 3.57302 5.12161 3.40632 4.9734C3.23962 4.82518 3.01353 4.74192 2.77778 4.74192H1.88889C1.65314 4.74192 1.42705 4.82518 1.26035 4.9734C1.09365 5.12161 1 5.32263 1 5.53224V7.90321C1 8.11281 1.09365 8.31384 1.26035 8.46205C1.42705 8.61026 1.65314 8.69353 1.88889 8.69353H2.77778C3.01353 8.69353 3.23962 8.61026 3.40632 8.46205C3.57302 8.31384 3.66667 8.11281 3.66667 7.90321ZM3.66667 7.90321V3.9516C3.66667 3.74199 3.76032 3.54097 3.92702 3.39275C4.09372 3.24454 4.31981 3.16127 4.55556 3.16127H5.44444C5.68019 3.16127 5.90628 3.24454 6.07298 3.39275C6.23968 3.54097 6.33333 3.74199 6.33333 3.9516V7.90321M3.66667 7.90321C3.66667 8.11281 3.76032 8.31384 3.92702 8.46205C4.09372 8.61026 4.31981 8.69353 4.55556 8.69353H5.44444C5.68019 8.69353 5.90628 8.61026 6.07298 8.46205C6.23968 8.31384 6.33333 8.11281 6.33333 7.90321M6.33333 7.90321V2.37095C6.33333 2.16134 6.42698 1.96032 6.59368 1.81211C6.76038 1.66389 6.98647 1.58063 7.22222 1.58063H8.11111C8.34686 1.58063 8.57295 1.66389 8.73965 1.81211C8.90635 1.96032 9 2.16134 9 2.37095V7.90321C9 8.11281 8.90635 8.31384 8.73965 8.46205C8.57295 8.61026 8.34686 8.69353 8.11111 8.69353H7.22222C6.98647 8.69353 6.76038 8.61026 6.59368 8.46205C6.42698 8.31384 6.33333 8.11281 6.33333 7.90321Z" stroke="white" stroke-width="1.5" stroke-linecap="round" stroke-linejoin="round"/>
</svg>
