<svg width="24" height="24" viewBox="0 0 24 24" fill="none" xmlns="http://www.w3.org/2000/svg">
<path d="M23.1705 13.341C23.4193 13.2163 23.6286 13.0248 23.7748 12.788C23.921 12.5512 23.9984 12.2783 23.9984 12C23.9984 11.7217 23.921 11.4489 23.7748 11.212C23.6286 10.9752 23.4193 10.7837 23.1705 10.659L2.17052 0.159011C1.91014 0.0287263 1.61746 -0.0229625 1.32821 0.0102495C1.03895 0.0434615 0.76561 0.160139 0.541533 0.346048C0.317455 0.531957 0.15233 0.779061 0.0662937 1.05722C-0.0197411 1.33537 -0.0229645 1.63255 0.0570164 1.91251L2.20051 9.41251C2.29017 9.72597 2.47952 10.0017 2.73989 10.1979C3.00027 10.3941 3.31748 10.5002 3.64351 10.5L10.5 10.5C10.8978 10.5 11.2794 10.658 11.5607 10.9394C11.842 11.2207 12 11.6022 12 12C12 12.3978 11.842 12.7794 11.5607 13.0607C11.2794 13.342 10.8978 13.5 10.5 13.5L3.64351 13.5C3.31748 13.4998 3.00027 13.6059 2.73989 13.8021C2.47952 13.9983 2.29017 14.274 2.20051 14.5875L0.0585155 22.0875C-0.0216255 22.3674 -0.0185928 22.6645 0.0672379 22.9427C0.15307 23.2209 0.317995 23.4681 0.541897 23.6541C0.765799 23.8402 1.039 23.957 1.32819 23.9905C1.61738 24.024 1.91005 23.9725 2.17052 23.8425L23.1705 13.3425V13.341Z" fill="white"/>
</svg>
