<svg width="140" height="43" viewBox="0 0 140 43" fill="none" xmlns="http://www.w3.org/2000/svg">
<path d="M15.4226 5.6845H6.02266V11.1042H13.482V15.0906H6.02266V24.1719H1.46851V1.65332H15.4114V5.6733L15.4226 5.6845Z" fill="#201E50"/>
<path d="M27.8399 8.90942H32.1248V24.1719H27.8399V21.686C27.1893 23.6792 24.7664 24.5638 23.2521 24.5638C19.2588 24.5638 17.1612 21.8876 17.1949 17.3077V8.90942H21.4798V17.0838C21.4798 19.4689 22.9156 20.5774 24.3962 20.5774C25.8769 20.5774 27.8287 19.7264 27.8287 16.983V8.90942H27.8399Z" fill="#201E50"/>
<path d="M51.3735 15.807V24.1717H47.0886V16.031C47.0886 13.6459 45.6528 12.5709 44.1721 12.5709C42.6914 12.5709 40.7397 13.3883 40.7397 16.1654V24.1717H36.4547V8.90925H40.7397V11.3951C41.4576 9.40195 43.8468 8.51733 45.3275 8.51733C49.3208 8.51733 51.4184 11.2272 51.3847 15.807H51.3735Z" fill="#201E50"/>
<path d="M54.9069 3.65757C54.9069 2.22427 56.152 1.10449 57.6214 1.10449C59.0908 1.10449 60.3359 2.21307 60.3359 3.65757C60.3359 5.10208 59.1245 6.24424 57.6214 6.24424C56.1183 6.24424 54.9069 5.10208 54.9069 3.65757ZM55.5014 24.183V8.9205H59.7863V24.183H55.5014Z" fill="#201E50"/>
<path d="M63.1626 16.4901C63.1626 11.6527 67.0886 8.51733 71.5418 8.51733C74.3236 8.51733 76.5446 9.79387 77.9916 11.7871L74.7499 14.0378C74.0656 13.086 72.7869 12.5037 71.5754 12.5037C69.1525 12.5037 67.5148 14.273 67.5148 16.4901C67.5148 18.7073 69.1525 20.5773 71.5754 20.5773C72.7869 20.5773 74.0656 19.9838 74.7499 19.0432L77.9916 21.2939C76.5558 23.2871 74.3236 24.5637 71.5418 24.5637C67.0886 24.5637 63.1626 21.3275 63.1626 16.4901Z" fill="#201E50"/>
<path d="M91.5084 8.90942H95.7933V24.1719H91.5084V21.686C90.8578 23.6792 88.4349 24.5638 86.9206 24.5638C82.9273 24.5638 80.8297 21.8876 80.8633 17.3077V8.90942H85.1482V17.0838C85.1482 19.4689 86.584 20.5774 88.0647 20.5774C89.5454 20.5774 91.4971 19.7264 91.4971 16.983V8.90942H91.5084Z" fill="#201E50"/>
<path d="M100.123 24.1718V0.611816H104.408V24.1718H100.123Z" fill="#201E50"/>
<path d="M120.224 8.90925H124.509V24.1717H120.224V21.977C119.215 23.5447 117.24 24.5637 115.188 24.5637C110.97 24.5637 107.818 21.2939 107.818 16.5573C107.818 11.8207 110.891 8.51733 115.277 8.51733C117.24 8.51733 119.203 9.36836 120.224 10.936V8.90925ZM120.09 16.5573C120.09 14.2394 118.227 12.5037 116.096 12.5037C113.965 12.5037 112.204 14.3289 112.204 16.5573C112.204 18.7856 113.875 20.5773 116.13 20.5773C118.385 20.5773 120.09 18.752 120.09 16.5573Z" fill="#201E50"/>
<path d="M140 9.01003L139.013 13.0972C138.093 12.6045 137.341 12.5373 136.825 12.5373C134.627 12.5373 133.124 14.5977 133.124 18.9424V24.1717H128.839V8.90925H133.09V12.179C133.943 9.6259 135.681 8.51733 137.577 8.51733C138.396 8.51733 139.316 8.65171 140 9.01003Z" fill="#201E50"/>
<path d="M5.6749 29.5132C8.29971 29.5132 9.3429 31.4504 9.3429 33.4212C9.3429 35.392 8.29971 37.318 5.61881 37.318H1.86108V42.3122H0.627197V29.5132H5.6749ZM5.56273 36.1646C7.40234 36.1646 8.10902 34.8097 8.10902 33.41C8.10902 32.0103 7.42478 30.6553 5.65247 30.6553H1.84986V36.1534H5.55151L5.56273 36.1646Z" fill="#201E50"/>
<path d="M16.7125 33.6787L16.4882 34.8096C16.0395 34.6193 15.6357 34.5633 15.3104 34.5633C13.2465 34.5633 12.6071 36.9036 12.6071 39.0424V42.3121H11.3956V33.6339H12.6071V35.7502C13.0333 34.2833 13.9644 33.4099 15.3216 33.4099C15.804 33.4099 16.3648 33.4995 16.7013 33.6675L16.7125 33.6787Z" fill="#201E50"/>
<path d="M17.307 37.9674C17.307 35.2127 19.371 33.4099 21.8499 33.4099C24.3289 33.4099 26.4153 35.2127 26.4153 37.9674C26.4153 40.722 24.3289 42.5361 21.8499 42.5361C19.371 42.5361 17.307 40.7108 17.307 37.9674ZM25.2151 37.9674C25.2151 35.9182 23.6671 34.5521 21.8499 34.5521C20.0328 34.5521 18.496 35.9294 18.496 37.9674C18.496 40.0054 19.9991 41.4051 21.8499 41.4051C23.7008 41.4051 25.2151 40.0166 25.2151 37.9674Z" fill="#201E50"/>
<path d="M32.3604 33.6338V34.6528H30.3638V42.312H29.186V34.6528H27.6044V33.6338H29.186V30.3865H30.3638V33.6338H32.3604Z" fill="#201E50"/>
<path d="M33.4036 37.9674C33.4036 35.2127 35.4675 33.4099 37.9465 33.4099C40.4255 33.4099 42.5119 35.2127 42.5119 37.9674C42.5119 40.722 40.4255 42.5361 37.9465 42.5361C35.4675 42.5361 33.4036 40.7108 33.4036 37.9674ZM41.3116 37.9674C41.3116 35.9182 39.7637 34.5521 37.9465 34.5521C36.1293 34.5521 34.5926 35.9294 34.5926 37.9674C34.5926 40.0054 36.0957 41.4051 37.9465 41.4051C39.7973 41.4051 41.3116 40.0166 41.3116 37.9674Z" fill="#201E50"/>
<path d="M44.2506 37.9674C44.2506 35.2127 46.3706 33.4099 48.8721 33.4099C50.1059 33.4099 51.2164 33.869 51.9792 34.5969L51.2501 35.4143C50.6556 34.8768 49.8143 34.5409 48.9057 34.5409C46.9876 34.5409 45.4396 35.9182 45.4396 37.9562C45.4396 39.9942 46.9876 41.3939 48.9057 41.3939C49.8143 41.3939 50.6331 41.058 51.2501 40.5205L51.9904 41.3379C51.2052 42.0769 50.0947 42.5249 48.8608 42.5249C46.3706 42.5249 44.2394 40.6996 44.2394 37.9562L44.2506 37.9674Z" fill="#201E50"/>
<path d="M53.3364 37.9674C53.3364 35.2127 55.4004 33.4099 57.8794 33.4099C60.3583 33.4099 62.4447 35.2127 62.4447 37.9674C62.4447 40.722 60.3583 42.5361 57.8794 42.5361C55.4004 42.5361 53.3364 40.7108 53.3364 37.9674ZM61.2445 37.9674C61.2445 35.9182 59.6965 34.5521 57.8794 34.5521C56.0622 34.5521 54.5254 35.9294 54.5254 37.9674C54.5254 40.0054 56.0285 41.4051 57.8794 41.4051C59.7302 41.4051 61.2445 40.0166 61.2445 37.9674Z" fill="#201E50"/>
<path d="M64.8003 42.3121V28.9084H65.9893V42.3121H64.8003Z" fill="#201E50"/>
</svg>
