<svg width="105" height="102" viewBox="0 0 105 102" fill="none" xmlns="http://www.w3.org/2000/svg">
<path d="M40.606 86.7599L30.9705 83.8821L30.7686 30.5249C30.7686 29.8419 31.3294 29.282 32.0137 29.282L40.5275 29.3044L40.606 86.7599Z" fill="#F1F2F2"/>
<path d="M104.173 24.4333C104.072 23.4927 103.702 22.5857 103.175 21.7458C103.725 22.5857 104.106 23.4927 104.173 24.4333Z" fill="url(#paint0_linear_376_3805)"/>
<path d="M103.175 21.7349C103.702 22.5747 104.072 23.4817 104.173 24.4223C104.106 23.4817 103.725 22.5747 103.175 21.7349Z" fill="#F1F2F2"/>
<path d="M65.3397 0.458984C58.5197 1.48917 50.892 4.41178 42.5353 10.1786C41.3575 10.9848 40.7742 12.8437 40.4826 14.8928C39.7534 15.1504 39.0131 15.2512 37.3305 15.2176C31.879 15.1168 27.2239 17.1436 27.2239 17.1436L0.426209 27.6806L0.0672607 27.8262V26.74C0.0672607 25.6091 0.594466 24.5677 1.50305 23.8846C2.24338 23.3247 3.19684 22.7312 4.38585 22.1602C9.23165 19.7527 41.8735 1.93708 65.3397 0.458984Z" fill="#201E50"/>
<path d="M102.637 18.4874C102.401 18.0059 90.6231 2.60902 62.3559 7.46883C61.4698 7.6256 60.5724 7.78236 59.6526 7.98392C58.8899 8.15189 58.1383 8.31985 57.4092 8.51021C49.2431 10.593 43.1971 13.8627 40.7181 14.8257C40.6396 14.8593 40.5723 14.8817 40.4938 14.9041C40.7742 12.8549 41.3687 10.9961 42.5465 10.1899C50.892 4.41185 58.5197 1.48925 65.3397 0.459057C82.5355 -2.12762 95.2782 6.76337 100.169 13.4596C102.031 16.0127 102.592 18.0507 102.637 18.4874Z" fill="#2E3192"/>
<path d="M40.5723 18.3082C40.4153 18.3082 40.2694 18.3082 40.1124 18.2858C38.4859 18.2075 37.0165 18.2298 35.6929 18.3082C35.1993 18.3306 34.717 18.3754 34.2683 18.4202C33.9542 18.4538 33.6513 18.4874 33.3597 18.521C33.1129 18.5546 32.8549 18.5882 32.6194 18.6218C30.948 18.8681 29.6805 19.2152 28.7943 19.5064C28.727 19.5288 15.8161 23.9631 7.32475 26.8745C6.99946 26.9977 6.67416 27.1096 6.3713 27.1992C6.05722 27.3112 5.74314 27.4232 5.45149 27.5128C5.15985 27.6135 4.8682 27.7143 4.59899 27.8039C4.50925 27.8375 4.41952 27.8711 4.341 27.8935C4.15031 27.9607 3.97083 28.0278 3.79136 28.0838C3.71284 28.1174 3.63432 28.1398 3.56702 28.1622C3.42119 28.2182 3.30902 28.263 3.17442 28.3078C2.89399 28.4086 2.62478 28.4982 2.378 28.5765C0.94221 29.0692 0.0784912 29.3716 0.0784912 29.3716V54.1745L24.801 57.7914L29.5459 58.2393V28.5653C29.5459 28.207 29.7814 27.8823 30.1179 27.7815C33.3933 26.8409 37.3642 26.5945 40.5387 26.9977V28.0167V23.6048C40.5387 23.0001 40.5387 22.4514 40.5387 21.9587C40.5387 21.4436 40.5387 20.9957 40.5387 20.615C40.5387 20.3686 40.5387 20.1223 40.5387 19.8983C40.5387 19.1929 40.5387 18.8121 40.5387 18.5882C40.5387 18.4874 40.5387 18.3866 40.5387 18.3194L40.5723 18.3082ZM1.67132 34.1082C1.67132 33.9402 1.86201 33.8059 2.12001 33.7723L4.64386 33.4587C4.99159 33.4139 5.3281 33.5819 5.3281 33.7835L5.37297 37.3779C5.37297 37.5683 5.13741 37.7139 4.83455 37.7251L2.26583 37.8035C1.95175 37.8035 1.67132 37.6579 1.67132 37.4675V34.1194V34.1082ZM4.75603 53.6706L2.03027 53.4355C1.74984 53.4131 1.53672 53.2339 1.53672 53.0435L1.68254 39.2928C1.68254 39.08 1.9181 38.912 2.22096 38.9008L4.74481 38.8112C5.05889 38.8112 5.33932 38.9792 5.33932 39.2032L5.40662 53.2675C5.40662 53.5139 5.11498 53.693 4.76725 53.6594L4.75603 53.6706ZM10.9367 54.3201L8.22212 54.0849C7.94169 54.0625 7.72857 53.8834 7.72857 53.693L7.87439 39.08C7.87439 38.8672 8.10995 38.6993 8.41281 38.6881L10.9367 38.5985C11.262 38.5985 11.5424 38.7665 11.5424 38.9904L11.5873 53.9282C11.5873 54.1633 11.2956 54.3537 10.9479 54.3201H10.9367ZM11.0376 37.5235L8.4689 37.6131C8.1436 37.6131 7.86317 37.4563 7.86317 37.266V33.246C7.86317 33.078 8.05387 32.9548 8.30064 32.9101L10.8245 32.5405C11.1722 32.4957 11.52 32.6637 11.52 32.8765L11.576 37.1876C11.576 37.3779 11.3405 37.5235 11.0376 37.5235ZM18.3848 55.0367L14.4925 54.712C14.2121 54.6896 13.9989 54.5104 13.9989 54.3201L14.1784 38.856C14.1784 38.6433 14.414 38.4753 14.7168 38.4641L18.3624 38.3297C18.6765 38.3074 18.9569 38.4977 18.9569 38.7217L19.013 54.6448C19.013 54.88 18.7213 55.0703 18.3848 55.0367ZM18.4746 37.2996L14.7841 37.4115C14.4701 37.4115 14.1896 37.266 14.1896 37.0756V32.2606C14.1896 32.0926 14.3803 31.9582 14.6383 31.9247L18.2727 31.4544C18.6204 31.4096 18.9569 31.5775 18.9569 31.7903L19.0242 36.9524C19.0242 37.1428 18.7887 37.2884 18.4858 37.2996H18.4746ZM26.2144 56.0109L22.3333 55.6638C22.0528 55.6302 21.8285 55.4623 21.8397 55.2607L22.0192 38.5761C22.0192 38.3633 22.266 38.1954 22.5576 38.1842L26.192 38.0498C26.5173 38.0498 26.7977 38.229 26.7977 38.4529L26.8538 55.6078C26.8538 55.8542 26.5621 56.0445 26.2144 56.0109ZM26.3153 37.042L22.6249 37.1652C22.2996 37.1652 22.0304 37.0084 22.0304 36.8181V31.1632C22.0304 30.9952 22.2099 30.8721 22.4567 30.8273L26.091 30.2898C26.4499 30.2338 26.7977 30.4018 26.7977 30.6257L26.865 36.6949C26.865 36.8852 26.6294 37.0308 26.3266 37.042H26.3153Z" fill="#E6E7E8"/>
<path d="M86.6187 27.2888C86.5402 27.2104 86.4616 27.1544 86.3719 27.1096C77.7571 23.0785 69.1648 25.1165 66.7083 25.8555C66.2932 25.9787 66.0128 26.337 66.0128 26.7401V38.7441C66.0128 39.3152 66.4727 39.7743 67.0448 39.7743H85.8896C86.4616 39.7743 86.9215 39.3152 86.9215 38.7441V27.9495C86.9215 27.7031 86.8094 27.4568 86.6299 27.2776L86.6187 27.2888ZM85.2278 37.4675C85.2278 37.9378 84.8015 38.3186 84.2631 38.3186H68.5703C68.0431 38.3186 67.6169 37.9378 67.6169 37.4675V27.8039C67.6169 27.7255 67.6169 27.6583 67.6617 27.5799C67.729 27.3448 67.9197 27.1656 68.1889 27.0872C70.0734 26.561 76.2428 25.1724 82.8049 27.3448C83.4554 27.5576 84.106 27.8039 84.7566 28.0838C85.0371 28.2182 85.2165 28.4758 85.2165 28.7669V37.4563L85.2278 37.4675Z" fill="#201E50"/>
<path d="M102.098 57.2204C101.19 57.3659 100.27 57.4891 99.3613 57.6235C97.5217 57.8698 95.6821 58.0938 93.8425 58.2841C92.9227 58.3849 92.0029 58.4745 91.0831 58.5417H91.0606C88.6153 58.7544 86.1812 58.9 83.7695 59.0232C83.1526 59.0568 82.5469 59.0792 81.9299 59.1016C80.7409 59.1464 79.5631 59.18 78.3853 59.2136C74.4256 59.3031 70.5894 59.2919 66.9663 59.1912C65.9679 59.1688 64.9808 59.1464 64.0162 59.1016C63.5338 59.0792 63.0515 59.068 62.5804 59.0456C61.167 58.9896 59.7873 58.9224 58.4637 58.844C57.8019 58.8104 57.1625 58.7656 56.5231 58.7209C55.9959 58.6873 55.4687 58.6537 54.9639 58.6201C54.8518 58.6201 54.7508 58.6201 54.6611 58.5977C54.2573 58.5641 53.8534 58.5417 53.4608 58.5081C53.3935 58.5081 53.3262 58.5081 53.2702 58.5081C52.541 58.4521 51.8568 58.3961 51.1838 58.3401C50.3201 58.2729 49.49 58.1946 48.7048 58.1274C48.4692 58.105 48.2449 58.0826 48.0205 58.0602C47.3475 57.993 46.7194 57.9258 46.1248 57.8698C45.8556 57.8474 45.5864 57.8138 45.3284 57.7914C44.9583 57.7579 44.5993 57.7131 44.2516 57.6683C43.9039 57.6235 43.5673 57.5899 43.2533 57.5563C42.8495 57.5115 42.4793 57.4555 42.1316 57.4219C41.795 57.3771 41.4922 57.3435 41.2342 57.3099C40.9762 57.2652 40.7518 57.2428 40.5612 57.2204L40.5948 86.7263L46.9661 88.9211L58.7553 92.37L94.695 90.1864L101.964 88.7195C102.682 88.5628 103.186 87.9469 103.186 87.2078V57.0188C102.827 57.0748 102.457 57.1308 102.087 57.1868L102.098 57.2204ZM84.0051 70.6016C83.9826 70.7584 83.949 70.9152 83.9041 71.0719C83.8705 71.2063 83.8368 71.3183 83.7919 71.4527C83.7359 71.6206 83.6798 71.7662 83.6125 71.923C83.534 72.1133 83.4554 72.2813 83.3545 72.4605C83.2647 72.6396 83.1526 72.7964 83.0516 72.9644C82.9507 73.1323 82.8385 73.2779 82.7039 73.4347C82.5917 73.5914 82.4683 73.7258 82.3113 73.8714C82.0421 74.1513 81.728 74.4089 81.4027 74.6104C81.2344 74.7224 81.0774 74.8344 80.8979 74.9128C80.4156 75.1703 79.8884 75.3831 79.3275 75.5062C79.2378 75.5286 79.1368 75.551 79.0583 75.5622C78.7106 75.6294 78.3404 75.663 77.9703 75.663C77.6001 75.663 77.2524 75.6294 76.9159 75.5622C76.8261 75.5622 76.7364 75.5286 76.6691 75.5174C76.5233 75.495 76.3999 75.4502 76.254 75.4054C76.1307 75.3719 76.0073 75.3271 75.8839 75.2823C75.7381 75.2263 75.6147 75.1703 75.4801 75.1143C75.3455 75.0583 75.2333 75.0023 75.1099 74.924C74.9753 74.8568 74.8631 74.7784 74.7397 74.7C74.6276 74.6328 74.5042 74.5544 74.4032 74.4648C74.3023 74.3977 74.2125 74.3305 74.134 74.2409C73.9545 74.0953 73.7975 73.9498 73.6405 73.793C72.3505 72.4717 71.6438 70.568 71.9803 68.4965C72.3954 65.9658 74.4369 63.9278 76.9719 63.5135C80.9877 62.864 84.4313 66.1002 84.0948 70.0305C84.0724 70.2097 84.0499 70.3777 84.0275 70.5568L84.0051 70.6016Z" fill="url(#paint1_linear_376_3805)"/>
<path d="M30.9256 69.5378L30.9705 83.9157V83.4678L30.9144 69.5378H30.9256ZM29.5235 84.6547V58.2393L24.7898 57.7914L0.0673027 54.1746H0V54.197H0.0673027V69.0899C0.0673027 69.9297 0.471119 70.736 1.18901 71.1615L27.9755 86.8943L29.1533 84.9235C29.1533 84.9235 29.1982 84.8451 29.2318 84.8115C29.2655 84.7779 29.3103 84.7443 29.344 84.7219C29.4225 84.6771 29.5122 84.6435 29.602 84.6435H29.5235V84.6547Z" fill="url(#paint2_linear_376_3805)"/>
<path d="M103.242 25.6428V25.1949C103.175 24.2543 102.794 23.3473 102.244 22.5074C102.166 22.3842 102.087 22.2723 102.009 22.1491C101.908 22.0035 101.795 21.8804 101.706 21.746C101.627 21.6452 101.537 21.5332 101.459 21.4436C101.369 21.3429 101.279 21.2309 101.201 21.1413C101.111 21.0405 101.021 20.9397 100.943 20.8614C100.842 20.7606 100.752 20.6598 100.662 20.5814C100.573 20.4806 100.472 20.3799 100.393 20.3127C100.292 20.2231 100.203 20.1335 100.113 20.0551C100.09 20.0551 100.079 20.0215 100.057 19.9991C99.5071 19.5064 98.9687 19.0809 98.4976 18.7562C98.3181 18.6218 98.1611 18.5098 98.0152 18.4091C97.8021 18.2747 97.6339 18.1627 97.488 18.0731C97.3422 17.9835 97.23 17.9052 97.1627 17.8716C97.1179 17.838 97.0842 17.8268 97.0842 17.8268C80.1239 7.4241 59.6863 11.6344 48.6487 15.2401C48.0317 15.4417 47.4597 15.632 46.9212 15.8336C46.3828 16.0351 45.8556 16.2143 45.3621 16.3935C45.2835 16.4271 45.205 16.4495 45.1265 16.4831C44.8909 16.5726 44.6554 16.6622 44.431 16.7406C43.4215 17.1325 42.569 17.4685 41.9184 17.7596C41.7502 17.838 41.0771 18.1515 40.763 18.2971C40.6957 18.3307 40.6397 18.3531 40.6172 18.3643C40.4602 18.3643 40.3144 18.3643 40.1573 18.3419C38.5308 18.2635 37.0614 18.2859 35.7378 18.3643C35.2442 18.3867 34.7619 18.4315 34.3132 18.4762C33.9991 18.5098 33.6963 18.5434 33.4046 18.577C33.1578 18.6106 32.8998 18.6442 32.6643 18.6778C30.9929 18.9242 29.7254 19.2713 28.8392 19.5624C28.7719 19.5848 15.861 24.0191 7.36967 26.9305C7.04438 27.0537 6.71908 27.1657 6.41622 27.2553C6.10214 27.3672 5.78806 27.4792 5.49641 27.5688C5.20477 27.6696 4.91312 27.7703 4.64391 27.8599C4.55418 27.8935 4.46444 27.9271 4.38592 27.9495C4.19523 28.0167 4.01575 28.0839 3.83628 28.1399C3.75776 28.1735 3.67924 28.1959 3.61194 28.2183C3.46612 28.2742 3.35394 28.319 3.21934 28.3638C2.93891 28.4646 2.6697 28.5542 2.42292 28.6326C0.987132 29.1253 0.123413 29.4276 0.123413 29.4276V27.8711L0.482361 27.7256L27.2801 17.1997C27.2801 17.1997 31.9352 15.1729 37.3867 15.2737C39.0805 15.3073 39.8208 15.2065 40.5387 14.949C40.6172 14.9266 40.6845 14.9042 40.763 14.8706C43.2532 13.9076 49.2881 10.6378 57.4541 8.55507C58.1832 8.36471 58.9348 8.19674 59.6975 8.02878C60.6174 7.82722 61.5147 7.67045 62.4009 7.51368C90.668 2.65387 102.446 18.0507 102.682 18.5322C103.209 19.6408 103.927 21.9587 103.276 25.6764L103.242 25.6428Z" fill="url(#paint3_linear_376_3805)"/>
<path d="M41.694 92.0788C41.694 92.0788 41.694 92.1012 41.6716 92.1124C41.6267 92.202 41.5594 92.314 41.5033 92.3923C41.3911 92.5715 41.2677 92.7395 41.1556 92.9074C41.0546 93.0418 40.9537 93.1538 40.8639 93.277C40.2918 93.9264 39.5852 94.4863 38.6541 94.9006C38.6205 94.9006 38.5756 94.9342 38.542 94.9678C38.5195 94.9902 38.4971 95.0014 38.4859 95.0238L26.8313 91.0374L27.6389 90.0856C27.7399 89.9736 27.8745 89.9064 28.0091 89.8952L32.1706 89.5705H32.1931C32.1931 89.5705 32.2492 89.5705 32.2828 89.5481C32.3165 89.5481 32.3389 89.5257 32.3726 89.5145C32.552 89.4249 32.6754 89.2458 32.6754 89.033V88.8875L41.6828 92.0676L41.694 92.0788Z" fill="#2E3192"/>
<path d="M77.9702 63.4238C74.5827 63.4238 71.8345 66.1673 71.8345 69.549C71.8345 71.2398 72.5187 72.7515 73.618 73.8377C73.775 73.9945 73.9321 74.14 74.1115 74.2856C74.2013 74.3752 74.291 74.4424 74.3808 74.5096C74.4929 74.5992 74.6163 74.6775 74.7173 74.7447C74.8407 74.8231 74.9528 74.9015 75.0874 74.9687C75.2108 75.0471 75.3342 75.103 75.4576 75.159C75.581 75.215 75.7156 75.271 75.8614 75.327C75.9848 75.3718 76.1082 75.4166 76.2316 75.4502C76.3774 75.495 76.5008 75.5398 76.6466 75.5622C76.7251 75.5622 76.8149 75.5957 76.8934 75.6069C77.2299 75.6741 77.5889 75.7077 77.9478 75.7077C78.3067 75.7077 78.6769 75.6741 79.0359 75.6069C79.1256 75.6069 79.2266 75.5734 79.3051 75.551C79.8659 75.4278 80.3931 75.2262 80.8755 74.9575C81.0549 74.8679 81.212 74.7559 81.3802 74.6551C81.7055 74.4312 82.0196 74.1848 82.2888 73.9161C82.4347 73.7705 82.558 73.6361 82.6814 73.4794C82.8048 73.3338 82.9282 73.177 83.0292 73.0091C83.1413 72.8411 83.2535 72.6843 83.332 72.5052C83.433 72.326 83.5227 72.158 83.59 71.9677C83.6573 71.8109 83.7134 71.6653 83.7695 71.4974C83.8144 71.363 83.848 71.251 83.8817 71.1167C83.9265 70.9599 83.9602 70.8031 83.9826 70.6464C84.0051 70.4672 84.0275 70.2992 84.0499 70.1201C84.0724 69.9409 84.0836 69.7729 84.0836 69.5826C84.0836 66.2009 81.3466 63.4574 77.9478 63.4574L77.9702 63.4238ZM80.7072 73.6473C80.3483 73.8825 79.9557 74.0729 79.5182 74.2072C79.0583 74.3528 78.5647 74.4312 78.06 74.4312C77.028 74.4312 76.0745 74.1176 75.2893 73.569C75.1772 73.4906 75.065 73.401 74.9641 73.3226C74.6388 73.0539 74.3359 72.7403 74.1003 72.3932C74.0667 72.3484 74.033 72.2924 73.9994 72.2476C73.4722 71.475 73.1805 70.5568 73.1805 69.5602C73.1805 66.8615 75.3679 64.6668 78.0712 64.6668C80.7745 64.6668 82.9731 66.8503 82.9731 69.5602C82.9731 71.2734 82.0757 72.7963 80.7184 73.6697L80.7072 73.6473Z" fill="#201E50"/>
<path d="M78.0712 64.6445C75.3791 64.6445 73.1805 66.828 73.1805 69.5379C73.1805 70.5345 73.4722 71.4527 73.9994 72.2253C74.033 72.2701 74.0667 72.3261 74.1003 72.3709C74.3359 72.718 74.6388 73.0316 74.9641 73.3003C75.0762 73.3899 75.1884 73.4795 75.2894 73.5467C76.0746 74.0953 77.028 74.4089 78.06 74.4089C78.5648 74.4089 79.0583 74.3305 79.5182 74.1849C79.9445 74.0505 80.3371 73.8714 80.7072 73.625C82.0645 72.7628 82.9619 71.2399 82.9619 69.5155C82.9619 66.8168 80.7745 64.6221 78.06 64.6221L78.0712 64.6445ZM78.4302 73.3787C76.1419 73.3787 74.2798 71.5199 74.2798 69.2243C74.2798 66.9288 76.1419 65.0812 78.4302 65.0812C79.1593 65.0812 79.8211 65.2603 80.4156 65.5851C80.6512 65.7082 80.8643 65.8538 81.0774 66.0218C81.1784 66.1114 81.2793 66.2121 81.369 66.2905C81.47 66.3689 81.571 66.4809 81.6383 66.5817C82.2328 67.3095 82.5805 68.2165 82.5805 69.2243C82.5805 71.5199 80.7184 73.3787 78.4302 73.3787Z" fill="#2E3192"/>
<path d="M81.6382 66.5815C81.5485 66.4808 81.4587 66.38 81.369 66.2904C81.2681 66.2008 81.1671 66.1 81.0774 66.0217C80.8642 65.8537 80.6511 65.7081 80.4156 65.585C79.821 65.2602 79.1592 65.0811 78.4301 65.0811C76.1418 65.0811 74.2798 66.9399 74.2798 69.2242C74.2798 71.5085 76.1418 73.3786 78.4301 73.3786C80.7184 73.3786 82.5805 71.5197 82.5805 69.2242C82.5805 68.2164 82.2327 67.3094 81.6382 66.5815ZM80.1688 72.214C79.8323 72.3708 79.4733 72.4716 79.0919 72.5163C80.5838 71.6765 81.3914 69.7729 80.5053 67.8245C80.337 67.455 80.1015 67.119 79.7986 66.8615C79.249 66.3464 78.5199 66.0329 77.7459 65.9657C77.443 65.9321 77.1738 65.9321 76.927 65.9657C77.6449 65.5514 78.5086 65.4058 79.406 65.585C80.6623 65.8201 81.7167 66.8055 82.0645 68.0485C82.558 69.8513 81.6382 71.5309 80.1688 72.214Z" fill="#AD5CA4"/>
<path d="M80.1687 72.2139C79.8322 72.3707 79.4733 72.4715 79.0919 72.5163C80.5838 71.6764 81.3914 69.7728 80.5053 67.8244C80.337 67.4549 80.1014 67.119 79.7986 66.8614C79.2489 66.3463 78.5198 66.0328 77.7458 65.9656C77.443 65.932 77.1738 65.932 76.927 65.9656C77.6449 65.5513 78.5086 65.4057 79.406 65.5849C80.6623 65.82 81.7167 66.8054 82.0644 68.0484C82.558 69.8512 81.6382 71.5309 80.1687 72.2139Z" fill="white"/>
<path d="M60.909 64.0621C60.6398 64.3757 60.1686 64.4204 59.8546 64.1517C59.776 64.0845 59.7087 64.0061 59.6751 63.9166H52.6307C52.3615 64.2301 51.8904 64.2749 51.5763 64.0061C51.2622 63.7374 51.2174 63.2671 51.4866 62.9535C51.7558 62.64 52.2269 62.5952 52.541 62.864C52.6419 62.9423 52.698 63.0431 52.7429 63.1439H59.72C59.72 63.1439 59.7312 63.1103 59.7536 63.0991C60.0228 62.7856 60.4939 62.7408 60.808 63.0095C61.1221 63.2783 61.167 63.7486 60.8977 64.0621H60.909Z" fill="#2E3192"/>
<path d="M97.2862 63.5248C97.017 63.8383 96.5458 63.8831 96.2318 63.6143C96.1532 63.5472 96.0859 63.4688 96.0523 63.3792H89.0079C88.7387 63.6927 88.2676 63.7375 87.9535 63.4688C87.6394 63.2 87.5946 62.7297 87.8638 62.4162C88.133 62.1027 88.6041 62.0579 88.9182 62.3266C89.0191 62.405 89.0752 62.5058 89.1201 62.6066H96.0971C96.0971 62.6066 96.1084 62.573 96.1308 62.5618C96.4 62.2482 96.8711 62.2034 97.1852 62.4722C97.4993 62.7409 97.5442 63.2112 97.2749 63.5248H97.2862Z" fill="#2E3192"/>
<path d="M27.9755 86.8942L27.3136 88.0923L27.28 88.0699L1.9293 72.7067C1.50304 72.4715 1.22262 72.0236 1.2114 71.5421L1.18896 71.1614L27.9755 86.883V86.8942Z" fill="#201E50"/>
<path d="M102.244 22.4961C102.166 22.3729 102.087 22.261 102.008 22.1378C101.908 21.9922 101.795 21.869 101.706 21.7347C101.627 21.6339 101.537 21.5219 101.459 21.4323C101.369 21.3315 101.279 21.2196 101.201 21.13C101.111 21.0292 101.021 20.9284 100.943 20.85C100.842 20.7493 100.752 20.6485 100.662 20.5701C100.573 20.4693 100.472 20.3797 100.393 20.3014C100.292 20.2118 100.203 20.1222 100.113 20.0438C100.09 20.0438 100.079 20.0102 100.057 19.9878C99.5071 19.5063 98.9574 19.0808 98.4975 18.7449C98.3181 18.6105 98.161 18.4985 98.0152 18.3977C97.8021 18.2634 97.6338 18.1514 97.488 18.0618C97.331 17.9722 97.23 17.905 97.1627 17.8603C97.1178 17.8267 97.0842 17.8155 97.0842 17.8155C80.1239 7.41278 59.6863 11.6231 48.6486 15.2288C48.0317 15.4304 47.4596 15.6207 46.9212 15.8223C46.3828 16.0238 45.8556 16.203 45.362 16.3822C45.2835 16.4157 45.205 16.4381 45.1265 16.4717C44.8909 16.5613 44.6554 16.6509 44.431 16.7293C43.4215 17.1212 42.569 17.4571 41.9184 17.7483C41.7501 17.8267 41.0771 18.1402 40.763 18.2858C40.6957 18.3194 40.6396 18.3418 40.6172 18.353V18.6217C40.6172 18.8569 40.6172 19.2376 40.6172 19.9318C40.6172 20.1558 40.6172 20.3909 40.6172 20.6485C40.6172 21.0292 40.6172 21.4771 40.6172 21.9922C40.6172 22.4849 40.6172 23.0336 40.6172 23.6383V32.798L40.6733 54.2304C43.5449 54.656 75.1884 59.1238 103.276 54.0177V56.8731C103.276 56.8731 103.31 56.8731 103.321 56.8731V25.2396C103.22 24.2989 102.85 23.3919 102.323 22.5521L102.244 22.4961ZM62.4008 52.8307C62.4008 53.2338 62.1204 53.5586 61.7615 53.5474L45.2611 53.1779C44.9246 53.1779 44.6554 52.8531 44.6554 52.45V27.9382C44.6554 27.6919 44.7675 27.4791 44.9358 27.3447C46.2594 26.4041 52.0362 23.0112 61.9522 26.5945C62.2101 26.6841 62.3896 26.964 62.3896 27.2887V52.8419L62.4008 52.8307ZM86.9103 52.6068C86.9103 53.1219 86.4728 53.5362 85.9119 53.5362H66.9886C66.439 53.5362 66.0015 53.1219 66.0015 52.6068V41.9465C66.0015 41.521 66.3493 41.1739 66.7755 41.1739H86.125C86.5513 41.1739 86.899 41.521 86.899 41.9465V52.6068H86.9103ZM86.9103 38.744C86.9103 39.3151 86.4503 39.7742 85.8783 39.7742H67.0335C66.4614 39.7742 66.0015 39.3151 66.0015 38.744V26.74C66.0015 26.3369 66.2707 25.9786 66.697 25.8554C69.1535 25.1276 77.7459 23.0896 86.3606 27.1096C86.4616 27.1544 86.5401 27.2103 86.6074 27.2887C86.7981 27.4679 86.899 27.703 86.899 27.9606V38.7552L86.9103 38.744ZM100.124 52.1813C100.124 52.8195 99.608 53.3346 98.9574 53.3346L91.4532 53.4018C90.8026 53.4018 90.2754 52.8867 90.2754 52.2484V27.4567C90.2754 27.3783 90.2754 27.2999 90.2978 27.2215C90.3876 26.7512 90.7689 26.3817 91.2625 26.3033C92.8217 26.0794 95.9288 25.889 98.8004 27.0872C99.0135 27.1656 99.2267 27.2663 99.4398 27.3671C99.8324 27.5687 100.102 27.9606 100.102 28.3973V52.1701L100.124 52.1813Z" fill="#F1F2F2"/>
<path d="M103.198 54.2082V57.0636C102.839 57.1196 102.468 57.1755 102.098 57.2427C101.19 57.3883 100.281 57.5115 99.3613 57.6347C97.5329 57.8922 95.6933 58.1162 93.8425 58.2953C92.9227 58.3961 92.0029 58.4857 91.0831 58.5529H91.0606C88.6153 58.7768 86.1812 58.9224 83.7695 59.0344C83.1526 59.068 82.5469 59.0904 81.9299 59.1128C80.7409 59.1575 79.5631 59.1911 78.3853 59.2247C74.4256 59.3143 70.5894 59.3031 66.9663 59.2023C65.9679 59.1799 64.9808 59.1463 64.0162 59.1128C63.5338 59.0904 63.0515 59.0792 62.5804 59.0568C61.167 59.0008 59.7873 58.9336 58.4637 58.8552C57.8019 58.8216 57.1625 58.7768 56.5231 58.732C55.9959 58.6984 55.4687 58.6648 54.9639 58.6313C54.8518 58.6313 54.7508 58.6313 54.6611 58.6089C54.2573 58.5753 53.8534 58.5529 53.4608 58.5193C53.3935 58.5193 53.3262 58.5193 53.2702 58.5193C52.541 58.4633 51.8568 58.4073 51.1838 58.3513C50.3201 58.2841 49.49 58.2057 48.7048 58.1385C48.4692 58.1162 48.2449 58.0938 48.0205 58.0714C47.3475 58.0042 46.7194 57.937 46.1248 57.881C45.8556 57.8586 45.5864 57.825 45.3284 57.8026C44.9583 57.7578 44.5993 57.713 44.2516 57.6794C43.9039 57.6347 43.5673 57.6011 43.2533 57.5675C42.8495 57.5227 42.4793 57.4667 42.1316 57.4331C41.795 57.3883 41.4922 57.3435 41.2342 57.3211C40.9762 57.2763 40.7518 57.2539 40.5612 57.2315V54.3649C44.9583 54.9472 75.6707 58.732 103.186 54.1746L103.198 54.2082Z" fill="#2E3192"/>
<path d="M99.4622 27.3895C99.2491 27.2775 99.036 27.1767 98.8229 27.1096C95.9513 25.9002 92.8329 26.1018 91.285 26.3257C90.7914 26.4041 90.41 26.7736 90.3203 27.2439C90.3203 27.3223 90.2979 27.4007 90.2979 27.4791V52.2708C90.2979 52.9091 90.8251 53.4354 91.4757 53.4242L98.9799 53.357C99.6305 53.357 100.146 52.8419 100.146 52.2036V28.4309C100.146 27.9942 99.8885 27.6023 99.4847 27.4007L99.4622 27.3895ZM98.8229 50.7591C98.8229 51.319 98.4415 51.7669 97.9816 51.7781L92.474 51.8341C91.9916 51.8341 91.6103 51.3862 91.6103 50.8151V28.778C91.6103 28.2741 91.9243 27.8374 92.3394 27.7702C93.562 27.5575 96.1083 27.3671 98.3405 28.7108C98.621 28.89 98.8229 29.2483 98.8229 29.629V50.7591Z" fill="#201E50"/>
<path d="M86.9103 41.9579V52.6182C86.9103 53.1333 86.4728 53.5476 85.912 53.5476H66.9887C66.4391 53.5476 66.0016 53.1333 66.0016 52.6182V41.9579C66.0016 41.5324 66.3493 41.1853 66.7756 41.1853H86.1251C86.5514 41.1853 86.8991 41.5324 86.8991 41.9579H86.9103Z" fill="#201E50"/>
<path d="M61.9634 26.5945C52.0475 23.0112 46.2707 26.4041 44.9471 27.3447C44.7676 27.4791 44.6778 27.6918 44.6666 27.9382V52.45C44.6666 52.8419 44.9246 53.1666 45.2724 53.1778L61.7727 53.5474C62.1205 53.5474 62.4121 53.245 62.4121 52.8307V27.2775C62.4121 26.964 62.2326 26.6728 61.9746 26.5833L61.9634 26.5945ZM61.01 51.431C61.01 51.7893 60.7632 52.0917 60.4716 52.0805L46.5175 51.7445C46.237 51.7445 46.0015 51.4534 46.0015 51.0951V29.0804C46.0015 28.8564 46.0912 28.6548 46.237 28.5317C46.4389 28.3749 46.753 28.1621 47.1905 27.9158C49.1647 26.8184 53.5618 25.2619 60.236 27.703H60.2584C60.3818 27.7478 60.494 27.8038 60.6286 27.8486C60.8529 27.9382 60.9988 28.1845 60.9988 28.4757V51.431H61.01Z" fill="#201E50"/>
<path d="M98.8341 29.6292V50.7593C98.8341 51.3192 98.4527 51.7671 97.9928 51.7783L92.4852 51.8343C92.0028 51.8343 91.6215 51.3864 91.6215 50.8153V28.7782C91.6215 28.2743 91.9355 27.8376 92.3506 27.7704C93.5732 27.5577 96.1195 27.3673 98.3517 28.711C98.6322 28.8902 98.8341 29.2485 98.8341 29.6292Z" fill="#2E3192"/>
<path d="M85.2277 28.7782V37.4677C85.2277 37.938 84.8015 38.3187 84.263 38.3187H68.5703C68.0431 38.3187 67.6168 37.938 67.6168 37.4677V27.804C67.6168 27.7256 67.6168 27.6585 67.6617 27.5801C67.729 27.3449 67.9197 27.1658 68.1889 27.0874C70.0734 26.5611 76.2428 25.1726 82.8048 27.3449C83.4554 27.5577 84.106 27.804 84.7566 28.084C85.037 28.2183 85.2165 28.4759 85.2165 28.767L85.2277 28.7782Z" fill="#2E3192"/>
<path d="M85.2277 43.6263V50.4233C85.1941 51.9462 84.4201 51.9462 83.433 51.9462H68.4581C67.987 51.9462 67.6168 51.6327 67.6168 51.2407V43.6375C67.6168 43.1896 68.0543 42.8201 68.5815 42.8201H84.2518C84.7902 42.8201 85.2165 43.1896 85.2165 43.6375L85.2277 43.6263Z" fill="#2E3192"/>
<path d="M61.01 28.4645V51.4198C61.01 51.7782 60.7632 52.0805 60.4716 52.0693L46.5175 51.7334C46.237 51.7334 46.0015 51.4422 46.0015 51.0839V29.0692C46.0015 28.8452 46.0912 28.6437 46.237 28.5205C46.4389 28.3637 46.753 28.151 47.1905 27.9046C49.1647 26.8072 53.5618 25.2508 60.236 27.6919H60.2584C60.3818 27.7367 60.494 27.7926 60.6286 27.8374C60.8529 27.927 60.9988 28.1734 60.9988 28.4645H61.01Z" fill="#2E3192"/>
<path d="M39.3609 31.7902V52.0133C39.3609 52.4836 38.9683 52.8643 38.4972 52.8643H37.712C37.2409 52.8643 36.8595 52.4836 36.8595 52.0133V31.7902C36.8595 31.3199 37.2409 30.9392 37.712 30.9392H38.4972C38.9683 30.9392 39.3609 31.3199 39.3609 31.7902Z" fill="#201E50"/>
<path d="M35.3564 31.6896V51.9015C35.3564 52.3718 34.975 52.7637 34.5039 52.7637H33.7075C33.2364 52.7637 32.855 52.3718 32.855 51.9015V31.6896C32.855 31.2193 33.2364 30.8274 33.7075 30.8274H34.5039C34.975 30.8274 35.3564 31.2193 35.3564 31.6896Z" fill="#201E50"/>
<path d="M39.3834 55.2944V82.9639C39.3834 83.4342 39.002 83.815 38.5309 83.815H37.7457C37.2746 83.815 36.882 83.4342 36.882 82.9639V55.2944C36.882 54.8241 37.2746 54.4434 37.7457 54.4434H38.5309C39.002 54.4434 39.3834 54.8241 39.3834 55.2944Z" fill="#201E50"/>
<path d="M34.5264 54.3088H33.7299C33.2591 54.3088 32.8774 54.6899 32.8774 55.1599V81.5865C32.8774 82.0565 33.2591 82.4375 33.7299 82.4375H34.5264C34.9972 82.4375 35.3789 82.0565 35.3789 81.5865V55.1599C35.3789 54.6899 34.9972 54.3088 34.5264 54.3088Z" fill="#201E50"/>
<path d="M58.7665 92.4147L55.794 100.746L48.1327 96.0876C47.3811 95.6397 46.9212 94.8335 46.91 93.9376L46.1809 93.6913L46.1472 94.8671C46.1472 95.1246 45.9341 95.3374 45.6873 95.3598L38.8785 95.8748C38.5869 95.8972 38.3289 95.6621 38.3289 95.3821V95.3486C38.3289 95.2142 38.3962 95.1134 38.4859 95.0462C38.4859 95.0238 38.5196 95.0126 38.542 94.9902C38.5757 94.9566 38.6205 94.9342 38.6542 94.923C39.5852 94.5199 40.3031 93.9488 40.864 93.2994C40.9649 93.1762 41.0659 93.053 41.1556 92.9298C41.279 92.7619 41.3912 92.5939 41.5033 92.4147C41.5594 92.3252 41.6267 92.2132 41.6716 92.1348C41.8062 92.1124 42.8943 91.8325 43.2644 88.9883L42.827 88.8427L32.6755 85.5506V89.0666C32.6755 89.2794 32.5409 89.4586 32.3726 89.5481C32.3389 89.5481 32.3165 89.5705 32.2829 89.5817C32.2492 89.5817 32.2268 89.5817 32.1931 89.6041H32.1707L28.0091 89.9289C27.8633 89.9289 27.7399 90.0072 27.639 90.1192L26.8313 91.071L26.7865 91.1158C26.6294 91.3174 26.3714 91.3622 26.1471 91.2614H26.1134C25.8218 91.1046 25.7096 90.7575 25.8779 90.4887L27.2912 88.1036L27.3249 88.126L27.9867 86.9279L29.1645 84.9571C29.1645 84.9571 29.2094 84.8787 29.243 84.8451C29.2767 84.8115 29.3215 84.7779 29.3552 84.7555C29.4337 84.7107 29.5234 84.6771 29.6132 84.6771H29.5347V58.2617V28.5878C29.5347 28.2294 29.7702 27.9047 30.1067 27.8039C33.3821 26.8633 37.353 26.617 40.5274 27.0201V29.338H31.9351C31.2958 29.338 30.791 29.8531 30.791 30.4914L30.8695 54.0514V58.3961V59.0568L30.8919 64.566V66.5816L30.9144 69.5826L30.9592 83.9605L40.5723 86.8047L46.9436 88.9995L58.7328 92.4483L58.7665 92.4147Z" fill="#201E50"/>
<path d="M98.9013 97.9352L94.7061 90.22L58.7665 92.4035L55.7939 100.735C55.5584 101.373 56.0631 102.034 56.7474 101.989L98.1274 99.3349C98.8228 99.2789 99.2266 98.5511 98.8901 97.9352H98.9013ZM60.191 94.6207C60.191 94.2735 60.449 93.9712 60.808 93.9488L92.8217 91.8996C93.1918 91.8772 93.5059 92.1572 93.5396 92.5267V92.5715C93.5396 92.9074 93.2703 93.2098 92.9114 93.2322L60.8977 95.2813C60.5388 95.3037 60.2135 95.035 60.191 94.6543V94.6207ZM58.9796 97.3193C58.9796 96.9722 59.2376 96.6699 59.5965 96.6475L94.7174 94.4191C95.0763 94.3967 95.4016 94.6655 95.424 95.0462V95.0798C95.424 95.4269 95.166 95.7293 94.7959 95.7516L59.6863 97.98C59.3161 98.0024 59.002 97.7336 58.9796 97.3641V97.3193ZM96.7476 97.5097C96.7476 97.8456 96.4784 98.148 96.1195 98.1815L58.3402 100.578C57.9813 100.6 57.656 100.332 57.6335 99.962V99.9172C57.6335 99.5813 57.8915 99.2677 58.2617 99.2453L96.0298 96.849C96.3887 96.8266 96.7252 97.0954 96.7476 97.4649V97.5097Z" fill="#2E3192"/>
<path d="M26.8425 36.695C26.8425 36.8854 26.607 37.0309 26.3041 37.0421L22.6137 37.1653C22.2884 37.1653 22.0192 37.0085 22.0192 36.8182V31.1633C22.0192 30.9954 22.1986 30.8722 22.4454 30.8274L26.0798 30.2899C26.4387 30.2339 26.7864 30.4019 26.7864 30.6258L26.8537 36.695H26.8425Z" fill="#2E3192"/>
<path d="M26.8426 55.6078C26.8426 55.8542 26.5509 56.0445 26.2032 56.0109L22.3221 55.6638C22.0417 55.6302 21.8173 55.4623 21.8285 55.2607L22.008 38.5761C22.008 38.3633 22.2548 38.1954 22.5464 38.1842L26.1808 38.0498C26.5061 38.0498 26.7865 38.229 26.7865 38.4529L26.8426 55.6078Z" fill="#2E3192"/>
<path d="M19.0018 36.9412C19.0018 37.1315 18.7663 37.2771 18.4634 37.2883L14.773 37.4003C14.4589 37.4003 14.1785 37.2547 14.1785 37.0643V32.2493C14.1785 32.0813 14.3692 31.947 14.6272 31.9134L18.2615 31.4431C18.6092 31.3983 18.9457 31.5662 18.9457 31.779L19.013 36.9412H19.0018Z" fill="#2E3192"/>
<path d="M19.0018 54.6447C19.0018 54.8799 18.7102 55.0703 18.3737 55.0367L14.4813 54.7119C14.2009 54.6895 13.9878 54.5104 13.9878 54.32L14.1673 38.856C14.1673 38.6432 14.4028 38.4752 14.7057 38.464L18.3513 38.3297C18.6653 38.3073 18.9458 38.4976 18.9458 38.7216L19.0018 54.6447Z" fill="#2E3192"/>
<path d="M11.5648 37.1875C11.5648 37.3779 11.3292 37.5235 11.0264 37.5235L8.45765 37.6131C8.13236 37.6131 7.85193 37.4563 7.85193 37.2659V33.2459C7.85193 33.078 8.04262 32.9548 8.2894 32.91L10.8132 32.5405C11.161 32.4957 11.5087 32.6637 11.5087 32.8764L11.5648 37.1875Z" fill="#2E3192"/>
<path d="M11.5649 53.9283C11.5649 54.1635 11.2732 54.3538 10.9255 54.3202L8.21096 54.0851C7.93053 54.0627 7.71741 53.8835 7.71741 53.6932L7.86323 39.0801C7.86323 38.8674 8.09879 38.6994 8.40165 38.6882L10.9255 38.5986C11.2508 38.5986 11.5312 38.7666 11.5312 38.9906L11.5761 53.9283H11.5649Z" fill="#2E3192"/>
<path d="M5.36181 37.3667C5.36181 37.5571 5.12625 37.7026 4.82338 37.7138L2.25466 37.7922C1.94058 37.7922 1.66016 37.6467 1.66016 37.4563V34.1082C1.66016 33.9402 1.85085 33.8058 2.10884 33.7722L4.63269 33.4587C4.98042 33.4139 5.31694 33.5819 5.31694 33.7834L5.36181 37.3779V37.3667Z" fill="#2E3192"/>
<path d="M5.3842 53.29C5.3842 53.5363 5.09256 53.7155 4.74483 53.6819L2.01907 53.4467C1.73864 53.4243 1.52551 53.2452 1.52551 53.0548L1.67134 39.304C1.67134 39.0913 1.90689 38.9233 2.20976 38.9121L4.73361 38.8225C5.04769 38.8225 5.32812 38.9905 5.32812 39.2144L5.39542 53.2788L5.3842 53.29Z" fill="#2E3192"/>
<path d="M19.8879 59.4934C19.8879 59.1687 20.202 58.8999 20.5946 58.8999C20.9872 58.8999 21.2901 59.1687 21.2901 59.4934V80.1308C21.2901 80.4555 20.976 80.7243 20.5946 80.7243C20.2132 80.7243 19.8879 80.4555 19.8879 80.1308V59.4934Z" fill="#2E3192"/>
<path d="M7.19019 57.1195C7.19019 56.862 7.4594 56.6604 7.78469 56.6604C8.10999 56.6604 8.36798 56.8732 8.36798 57.1195V73.1882C8.36798 73.4458 8.09877 73.6473 7.78469 73.6473C7.47061 73.6473 7.19019 73.4346 7.19019 73.1882V57.1195Z" fill="#2E3192"/>
<defs>
<linearGradient id="paint0_linear_376_3805" x1="103.175" y1="23.0896" x2="104.173" y2="23.0896" gradientUnits="userSpaceOnUse">
<stop stop-color="#68C4A4"/>
<stop offset="1" stop-color="#AD5CA4"/>
</linearGradient>
<linearGradient id="paint1_linear_376_3805" x1="84.2631" y1="97.3754" x2="37.7193" y2="1.22448" gradientUnits="userSpaceOnUse">
<stop offset="0.22" stop-color="#AD5CA4"/>
<stop offset="0.29" stop-color="#9D73A4"/>
<stop offset="0.4" stop-color="#8A90A4"/>
<stop offset="0.53" stop-color="#7AA7A4"/>
<stop offset="0.66" stop-color="#70B7A4"/>
<stop offset="0.8" stop-color="#69C1A4"/>
<stop offset="1" stop-color="#68C4A4"/>
</linearGradient>
<linearGradient id="paint2_linear_376_3805" x1="39.2711" y1="91.239" x2="14.5958" y2="63.8293" gradientUnits="userSpaceOnUse">
<stop offset="0.24" stop-color="#AD5CA4"/>
<stop offset="0.94" stop-color="#68C4A4"/>
</linearGradient>
<linearGradient id="paint3_linear_376_3805" x1="75.5025" y1="50.6137" x2="30.4062" y2="0.504632" gradientUnits="userSpaceOnUse">
<stop offset="0.24" stop-color="#AD5CA4"/>
<stop offset="0.94" stop-color="#68C4A4"/>
</linearGradient>
</defs>
</svg>
